<?xml version="1.0" standalone="no"?>
<!DOCTYPE svg PUBLIC "-//W3C//DTD SVG 20010904//EN"
 "http://www.w3.org/TR/2001/REC-SVG-20010904/DTD/svg10.dtd">
<svg version="1.0" xmlns="http://www.w3.org/2000/svg"
 width="2421.000000pt" height="2421.000000pt" viewBox="0 0 2421.000000 2421.000000"
 preserveAspectRatio="xMidYMid meet">
<metadata>
Created by potrace 1.16, written by Peter Selinger 2001-2019
</metadata>
<g transform="translate(0.000000,2421.000000) scale(0.100000,-0.100000)"
fill="#000000" stroke="none">
<path d="M9347 20459 c-27 -16 -49 -67 -42 -98 3 -16 17 -39 31 -52 l25 -23
767 -29 c422 -16 771 -32 775 -37 5 -4 122 -403 261 -886 139 -484 256 -888
259 -900 6 -16 0 -23 -30 -38 -152 -71 -358 -221 -498 -361 -297 -297 -492
-679 -568 -1115 -29 -169 -31 -541 -3 -695 25 -139 70 -311 105 -402 l30 -76
-50 -45 c-73 -66 -248 -375 -361 -637 l-26 -61 -98 -28 c-421 -119 -1099 -285
-2189 -535 -2748 -630 -4023 -975 -5155 -1394 -1414 -524 -2250 -1084 -2491
-1670 -130 -314 -99 -621 100 -1015 160 -316 427 -615 757 -849 865 -614 2382
-863 4059 -667 891 103 1740 336 2119 581 148 95 825 663 1381 1157 513 456
1110 1034 1410 1366 77 85 158 174 181 198 l40 45 85 -169 84 -169 75 -12
c531 -90 1008 -127 1630 -128 530 0 843 19 1275 76 314 41 690 111 711 133 10
10 35 62 103 221 l22 49 57 -64 c384 -436 1021 -1051 1727 -1670 441 -387
1073 -915 1165 -975 417 -271 1362 -516 2351 -610 423 -40 1073 -52 1414 -27
1221 91 2092 391 2685 925 285 256 503 585 620 934 251 753 -329 1443 -1747
2082 -1159 521 -2701 970 -5638 1641 -1120 256 -1924 449 -2290 550 -82 23
-150 42 -151 43 0 1 -39 81 -87 177 -124 253 -234 434 -302 496 l-55 51 25 60
c71 176 123 443 132 678 26 696 -276 1342 -814 1741 -54 40 -251 160 -310 189
-3 2 514 1806 519 1810 2 2 336 15 743 30 407 14 755 28 774 31 79 12 109 103
54 159 l-28 28 -240 -7 c-132 -4 -502 -17 -823 -30 -573 -22 -583 -22 -605
-44 -12 -12 -220 -428 -463 -925 l-440 -902 -40 1 c-131 5 -320 5 -366 -1
l-53 -6 -434 893 c-239 491 -443 905 -453 920 -11 16 -34 32 -56 37 -32 9
-1426 63 -1572 61 -30 0 -63 -5 -73 -11z"/>
<path d="M9637 9308 c-44 -206 -70 -346 -98 -528 -20 -132 -60 -473 -56 -476
5 -4 318 -105 382 -123 503 -144 1080 -240 1780 -298 266 -21 1117 -25 1385
-5 502 37 962 106 1345 204 158 40 463 134 477 146 13 13 -34 441 -78 697 -15
92 -94 488 -98 492 -1 1 -42 -9 -91 -22 -279 -77 -779 -165 -1160 -205 -580
-60 -1335 -66 -1950 -14 -599 50 -1214 151 -1665 274 -60 16 -116 30 -123 30
-8 0 -26 -62 -50 -172z"/>
<path d="M9980 5366 c0 -22 207 -325 308 -451 276 -344 562 -599 992 -885 219
-145 366 -211 570 -256 119 -27 419 -27 540 -1 217 46 365 114 605 276 462
311 759 587 1052 976 66 87 164 238 159 243 -2 2 -62 -8 -132 -22 -1130 -219
-2529 -203 -3734 43 -141 29 -307 66 -342 77 -10 3 -18 3 -18 0z"/>
</g>
</svg>
