<?xml version="1.0" encoding="iso-8859-1"?>
<!-- Uploaded to: SVG Repo, www.svgrepo.com, Generator: SVG Repo Mixer Tools -->
<!DOCTYPE svg PUBLIC "-//W3C//DTD SVG 1.1//EN" "http://www.w3.org/Graphics/SVG/1.1/DTD/svg11.dtd">
<svg fill="#000000" height="800px" width="800px" version="1.1" id="Capa_1" xmlns="http://www.w3.org/2000/svg" xmlns:xlink="http://www.w3.org/1999/xlink" 
	 viewBox="0 0 297 297" xml:space="preserve">
<g>
	<path d="M172.959,57.572c1.828,0,3.607-0.741,4.892-2.026c1.295-1.286,2.027-3.074,2.027-4.893c0-1.818-0.732-3.608-2.027-4.893
		c-1.285-1.285-3.064-2.026-4.892-2.026c-1.818,0-3.598,0.741-4.893,2.026c-1.285,1.285-2.026,3.074-2.026,4.893
		c0,1.818,0.741,3.607,2.026,4.893C169.361,56.83,171.14,57.572,172.959,57.572z"/>
	<path d="M148.497,57.572c1.828,0,3.607-0.741,4.892-2.026c1.295-1.286,2.027-3.074,2.027-4.893c0-1.818-0.732-3.608-2.027-4.893
		c-1.285-1.285-3.064-2.026-4.892-2.026c-1.818,0-3.598,0.741-4.893,2.026c-1.285,1.285-2.026,3.074-2.026,4.893
		c0,1.818,0.741,3.607,2.026,4.893C144.899,56.83,146.679,57.572,148.497,57.572z"/>
	<path d="M124.035,57.572c1.818,0,3.607-0.741,4.892-2.026c1.286-1.286,2.027-3.074,2.027-4.893c0-1.829-0.741-3.608-2.027-4.893
		c-1.285-1.285-3.063-2.026-4.892-2.026c-1.818,0-3.598,0.741-4.893,2.026c-1.285,1.285-2.026,3.074-2.026,4.893
		c0,1.818,0.741,3.607,2.026,4.893C120.437,56.83,122.217,57.572,124.035,57.572z"/>
	<path d="M172.959,90.187c1.828,0,3.607-0.741,4.892-2.026c1.295-1.286,2.027-3.074,2.027-4.893c0-1.818-0.732-3.608-2.027-4.893
		c-1.285-1.285-3.064-2.026-4.892-2.026c-1.818,0-3.598,0.741-4.893,2.026c-1.285,1.285-2.026,3.074-2.026,4.893
		c0,1.818,0.741,3.607,2.026,4.893C169.361,89.446,171.14,90.187,172.959,90.187z"/>
	<path d="M148.497,90.187c1.828,0,3.607-0.741,4.892-2.026c1.295-1.286,2.027-3.074,2.027-4.893c0-1.818-0.732-3.608-2.027-4.893
		c-1.285-1.285-3.064-2.026-4.892-2.026c-1.818,0-3.608,0.741-4.893,2.026c-1.285,1.285-2.026,3.074-2.026,4.893
		c0,1.818,0.741,3.607,2.026,4.893C144.899,89.446,146.679,90.187,148.497,90.187z"/>
	<path d="M124.035,90.187c1.828,0,3.607-0.741,4.892-2.026c1.286-1.286,2.027-3.074,2.027-4.893c0-1.829-0.741-3.608-2.027-4.893
		c-1.285-1.285-3.073-2.026-4.892-2.026c-1.818,0-3.598,0.741-4.893,2.026c-1.285,1.285-2.026,3.074-2.026,4.893
		c0,1.818,0.741,3.607,2.026,4.893C120.427,89.446,122.217,90.187,124.035,90.187z"/>
	<path d="M172.959,122.803c1.828,0,3.607-0.741,4.892-2.026c1.295-1.286,2.027-3.074,2.027-4.893s-0.732-3.608-2.027-4.893
		c-1.285-1.285-3.064-2.026-4.892-2.026c-1.818,0-3.598,0.741-4.893,2.026c-1.285,1.285-2.026,3.074-2.026,4.893
		s0.741,3.607,2.026,4.893C169.361,122.062,171.14,122.803,172.959,122.803z"/>
	<path d="M148.497,122.803c1.828,0,3.607-0.741,4.892-2.026c1.295-1.286,2.027-3.074,2.027-4.893s-0.732-3.608-2.027-4.893
		c-1.285-1.285-3.064-2.026-4.892-2.026c-1.818,0-3.608,0.741-4.893,2.026s-2.026,3.074-2.026,4.893s0.741,3.607,2.026,4.893
		C144.899,122.062,146.679,122.803,148.497,122.803z"/>
	<path d="M124.035,122.803c1.828,0,3.607-0.741,4.892-2.026c1.286-1.286,2.027-3.074,2.027-4.893s-0.741-3.608-2.027-4.893
		c-1.285-1.285-3.063-2.026-4.892-2.026c-1.818,0-3.598,0.741-4.893,2.026c-1.285,1.285-2.026,3.074-2.026,4.893
		s0.741,3.607,2.026,4.893C120.437,122.062,122.217,122.803,124.035,122.803z"/>
	<path d="M172.959,155.418c1.828,0,3.607-0.741,4.892-2.026c1.295-1.295,2.027-3.074,2.027-4.893s-0.732-3.608-2.027-4.893
		c-1.285-1.285-3.064-2.026-4.892-2.026c-1.818,0-3.608,0.741-4.893,2.026c-1.285,1.285-2.026,3.074-2.026,4.893
		s0.741,3.597,2.026,4.893C169.361,154.677,171.14,155.418,172.959,155.418z"/>
	<path d="M148.497,155.418c1.828,0,3.607-0.741,4.892-2.026c1.295-1.286,2.027-3.074,2.027-4.893s-0.732-3.608-2.027-4.893
		c-1.285-1.285-3.064-2.026-4.892-2.026c-1.818,0-3.608,0.741-4.893,2.026c-1.285,1.285-2.026,3.074-2.026,4.893
		s0.741,3.607,2.026,4.893C144.899,154.677,146.679,155.418,148.497,155.418z"/>
	<path d="M124.035,155.418c1.828,0,3.607-0.741,4.892-2.026c1.286-1.286,2.027-3.074,2.027-4.893s-0.741-3.608-2.027-4.893
		c-1.285-1.285-3.063-2.026-4.892-2.026c-1.818,0-3.598,0.741-4.893,2.026c-1.285,1.285-2.026,3.074-2.026,4.893
		s0.741,3.607,2.026,4.893C120.427,154.677,122.217,155.418,124.035,155.418z"/>
	<path d="M172.959,239.428c-1.818,0-3.598,0.741-4.893,2.026c-1.285,1.285-2.026,3.074-2.026,4.893c0,1.818,0.741,3.607,2.026,4.893
		c1.294,1.285,3.074,2.026,4.893,2.026c1.828,0,3.607-0.741,4.892-2.026c1.295-1.286,2.027-3.074,2.027-4.893
		c0-1.818-0.732-3.608-2.027-4.893C176.566,240.17,174.787,239.428,172.959,239.428z"/>
	<path d="M148.497,239.428c-1.818,0-3.608,0.741-4.893,2.026c-1.285,1.285-2.026,3.074-2.026,4.893c0,1.818,0.741,3.607,2.026,4.893
		c1.294,1.285,3.074,2.026,4.893,2.026c1.828,0,3.607-0.741,4.892-2.026c1.295-1.286,2.027-3.074,2.027-4.893
		c0-1.818-0.732-3.608-2.027-4.893C152.104,240.17,150.325,239.428,148.497,239.428z"/>
	<path d="M124.035,253.265c1.818,0,3.607-0.741,4.892-2.026c1.286-1.286,2.027-3.074,2.027-4.893c0-1.818-0.741-3.608-2.027-4.893
		c-1.285-1.285-3.063-2.026-4.892-2.026c-1.818,0-3.598,0.741-4.893,2.026c-1.285,1.285-2.026,3.074-2.026,4.893
		c0,1.818,0.741,3.607,2.026,4.893C120.437,252.524,122.217,253.265,124.035,253.265z"/>
	<path d="M197.423,0H99.577c-5.458,0-9.884,4.425-9.884,9.884v254.13c0,18.189,14.797,32.986,32.986,32.986h51.641
		c18.189,0,32.986-14.797,32.986-32.986V9.884C207.307,4.425,202.882,0,197.423,0z M187.54,264.014
		c0,7.289-5.93,13.219-13.219,13.219h-51.641c-7.289,0-13.219-5.93-13.219-13.219V19.767h78.08V264.014z"/>
	<path d="M174.691,197.423c0-14.442-11.749-26.191-26.191-26.191s-26.191,11.749-26.191,26.191s11.749,26.191,26.191,26.191
		S174.691,211.866,174.691,197.423z M142.076,197.423c0-3.542,2.882-6.424,6.424-6.424s6.424,2.882,6.424,6.424
		s-2.882,6.424-6.424,6.424S142.076,200.966,142.076,197.423z"/>
</g>
</svg>