<?xml version="1.0" standalone="yes"?><svg xmlns="http://www.w3.org/2000/svg" version="1.1" viewBox="-5.0 -10.0 110.0 135.0" style="zoom: 1;"><path d="m18.672 10.938c-0.98438-0.96484-2.3359-1.5625-3.8281-1.5625-3.0195 0-5.4688 2.4492-5.4688 5.4688s2.4492 5.4688 5.4688 5.4688c1.4922 0 2.8438-0.59766 3.8281-1.5625h0.078125 4.3438l-0.9375 4.6875h-4.9688c-0.86328 0-1.5625 0.69922-1.5625 1.5625v6.25c0 0.86328 0.69922 1.5625 1.5625 1.5625h1.5625v12.5c0 0.86328 0.69922 1.5625 1.5625 1.5625h14.062c0.86328 0 1.5625-0.69922 1.5625-1.5625v-12.5h2.3242l2.8984 4.0352c0.29297 0.41016 0.76562 0.65234 1.2695 0.65234h2.8828v43.75h-4.6875c-0.86328 0-1.5625 0.69922-1.5625 1.5625v6.25c0 0.86328 0.69922 1.5625 1.5625 1.5625h18.75c0.86328 0 1.5625-0.69922 1.5625-1.5625v-6.25c0-0.86328-0.69922-1.5625-1.5625-1.5625h-4.6875v-43.75h10.938v4.6875h-7.8125c-0.86328 0-1.5625 0.69922-1.5625 1.5625v4.6875c0 0.86328 0.69922 1.5625 1.5625 1.5625h7.8125v1.5625c0 0.86328 0.69922 1.5625 1.5625 1.5625h4.6875c0.86328 0 1.5625-0.69922 1.5625-1.5625v-1.5625h0.50391l2.7344 6.832c0.23438 0.58984 0.80859 0.98047 1.4492 0.98047h10.938c0.51172 0 0.99219-0.25 1.2852-0.67188 0.28906-0.42188 0.35938-0.96094 0.17969-1.4375l-4.6875-12.5c-0.23047-0.61328-0.8125-1.0156-1.4648-1.0156h-10.938v-4.6875h9.375c0.86328 0 1.5625-0.69922 1.5625-1.5625v-10.938c0-0.86328-0.69922-1.5625-1.5625-1.5625h-3.5625l-0.94531-2.8438 4.1953-5.5938c0.35547-0.47266 0.41406-1.1055 0.14844-1.6367-0.26563-0.52734-0.80469-0.86328-1.3984-0.86328h-23.438c-0.59375 0-1.1328 0.33594-1.3984 0.86328-0.26562 0.53125-0.20703 1.1641 0.14844 1.6367l4.1953 5.5938-0.94531 2.8438h-5.125v-4.6875c0-0.86328-0.69922-1.5625-1.5625-1.5625h-6.25c-0.86328 0-1.5625 0.69922-1.5625 1.5625v4.6875h-12.781l-0.9375-4.6875h4.3438 0.078125c0.98438 0.96484 2.3359 1.5625 3.8281 1.5625 3.0195 0 5.4688-2.4492 5.4688-5.4688s-2.4492-5.4688-5.4688-5.4688c-1.4922 0-2.8438 0.59766-3.8281 1.5625h-0.078125-17.188-0.078125zm-6.1719 3.9062c0-1.293 1.0508-2.3438 2.3438-2.3438s2.3438 1.0508 2.3438 2.3438-1.0508 2.3438-2.3438 2.3438-2.3438-1.0508-2.3438-2.3438zm60.938 30.469v1.5625h1.5625c0.64062 0 1.2148 0.39062 1.4492 0.98047l2.7344 6.832h7.625l-3.5156-9.375zm-7.8125 1.5625v-1.5625h-6.25v1.5625zm-14.062-26.562v3.125h-3.125v-3.125zm18.75 17.188h-1.5625v12.5h1.5625zm10.938-3.125v-7.8125h-62.5v3.125h20.312c0.50391 0 0.97656 0.24219 1.2695 0.65234l2.8984 4.0352zm-20.312-18.75h17.188l-2.3438 3.125h-12.5zm2.168 7.8125h12.852l-0.51953-1.5625h-11.812zm-41.23 20.312v-1.5625h10.938v1.5625zm10.938-6.25h-10.938v1.5625h10.938zm-10.938-3.125v-1.5625h10.938v1.5625zm-1.5625-18.75h14.062v-1.5625h-14.062zm19.531-3.125c-1.293 0-2.3438 1.0508-2.3438 2.3438s1.0508 2.3438 2.3438 2.3438 2.3438-1.0508 2.3438-2.3438-1.0508-2.3438-2.3438-2.3438zm-11.438 6.25h-2.125l-0.9375 4.6875h4zm23.156 18.75h-3.125v43.75h3.125zm-9.375 46.875h15.625v3.125h-15.625z" fill-rule="evenodd"></path></svg>