<?xml version="1.0" encoding="utf-8"?>
<svg viewBox="0 0 512 512" width="512" height="512" fill="#000000" xmlns="http://www.w3.org/2000/svg">
  <defs>
    <style type="text/css"> .st0{fill:#000000;} </style>
  </defs>
  <g id="SVGRepo_bgCarrier" stroke-width="0"/>
  <g id="SVGRepo_tracerCarrier" stroke-linecap="round" stroke-linejoin="round"/>
  <g id="SVGRepo_iconCarrier">
    <style type="text/css"> .st0{fill:#000000;} </style>
    <g>
      <path class="st0" d="M510.827,231.327c-5.502-57.391-30.323-113.33-74.334-157.025l-19.511,19.632 c44.885,44.598,67.314,103.252,67.331,162.053c0,3.642-0.09,7.283-0.262,10.924c-2.596,54.586-24.555,108.328-65.994,150.062 l19.649,19.502c43.342-43.621,67.736-99.143,73.142-156.049c0.771-8.128,1.156-16.288,1.152-24.44 C512.004,247.762,511.61,239.528,510.827,231.327z"/>
      <path class="st0" d="M363.598,303.34c6.614-15.073,10.038-31.213,10.034-47.353c0.008-30.212-11.596-60.548-34.698-83.486 l-19.511,19.65c17.682,17.574,26.498,40.628,26.522,63.836c-0.024,22.996-8.677,45.868-26.104,63.428l19.642,19.51h0.004h0.004 C349.98,328.362,357.944,316.24,363.598,303.34z"/>
      <path class="st0" d="M387.713,123.393l-19.511,19.65c31.279,31.082,46.91,71.939,46.926,112.944 c-0.016,40.645-15.369,81.166-46.188,112.208l19.658,19.51c36.143-36.388,54.226-84.127,54.218-131.718 C442.824,207.978,424.413,159.838,387.713,123.393z"/>
      <path class="st0" d="M27.949,245.063c2.596-54.594,24.554-108.327,65.994-150.054L74.302,75.498 C24.767,125.345-0.017,190.74,0,255.987c-0.017,65.806,25.21,131.742,75.507,181.711l19.511-19.641 c-44.885-44.598-67.315-103.268-67.331-162.07C27.687,252.346,27.777,248.697,27.949,245.063z"/>
      <path class="st0" d="M143.051,143.781l-19.642-19.502c-36.142,36.364-54.233,84.11-54.216,131.709 c0,6.004,0.283,12.006,0.856,17.985c4.014,41.875,22.127,82.716,54.238,114.61l19.518-19.65 c-31.295-31.081-46.91-71.94-46.926-112.945C96.896,215.343,112.239,174.814,143.051,143.781z"/>
      <path class="st0" d="M166.055,255.987c0.025-22.996,8.685-45.86,26.104-63.41l-19.642-19.518 c-22.758,22.881-34.157,52.979-34.149,82.929c-0.008,30.205,11.596,60.54,34.698,83.487l19.518-19.634 c-15.479-15.401-24.164-34.977-26.108-55.168C166.198,261.786,166.059,258.883,166.055,255.987z"/>
      <path class="st0" d="M255.889,221.387c-19.117,0.057-34.559,15.607-34.494,34.724c0.066,19.116,15.607,34.559,34.723,34.502 c19.117-0.065,34.559-15.615,34.494-34.732C290.547,236.764,275.006,221.33,255.889,221.387z"/>
    </g>
  </g>
</svg>