<?xml version="1.0" encoding="UTF-8" standalone="no" ?>
<!DOCTYPE svg PUBLIC "-//W3C//DTD SVG 1.1//EN" "http://www.w3.org/Graphics/SVG/1.1/DTD/svg11.dtd">
<svg xmlns="http://www.w3.org/2000/svg" xmlns:xlink="http://www.w3.org/1999/xlink" version="1.1" width="1080" height="1080" viewBox="0 0 1080 1080" xml:space="preserve">
<desc>Created with Fabric.js 5.2.4</desc>
<defs>
</defs>
<rect x="0" y="0" width="100%" height="100%" fill="transparent"></rect>
<g transform="matrix(1 0 0 1 540 540)" id="6231ba06-8c4d-450f-8736-638394ffd6ce"  >
<rect style="stroke: none; stroke-width: 1; stroke-dasharray: none; stroke-linecap: butt; stroke-dashoffset: 0; stroke-linejoin: miter; stroke-miterlimit: 4; fill: rgb(255,255,255); fill-rule: nonzero; opacity: 1; visibility: hidden;" vector-effect="non-scaling-stroke"  x="-540" y="-540" rx="0" ry="0" width="1080" height="1080" />
</g>
<g transform="matrix(1 0 0 1 540 540)" id="7b5e4c66-3397-480e-9fba-bf240ce6c77c"  >
</g>
<g transform="matrix(25.21 0 0 25.21 539.36 539.36)"  >
<path style="stroke: rgb(0,0,0); stroke-width: 0; stroke-dasharray: none; stroke-linecap: butt; stroke-dashoffset: 0; stroke-linejoin: miter; stroke-miterlimit: 4; fill: rgb(0,0,0); fill-rule: nonzero; opacity: 1;" vector-effect="non-scaling-stroke"  transform=" translate(-40, -36)" d="M 38 38 L 51.416 38 C 52.1876 36.2341 53.9497 35 56 35 C 58.7614 35 61 37.2386 61 40 C 61 42.7614 58.7614 45 56 45 C 53.9497 45 52.1876 43.7659 51.416 42 L 36.8284 42 L 25.8284 53 L 34 53 L 30 57 L 19 57 L 19 46 L 23 42 L 23 50.1716 L 34 39.1716 L 34 24.584 C 32.2341 23.8124 31 22.0503 31 20 C 31 17.2386 33.2386 15 36 15 C 38.7614 15 41 17.2386 41 20 C 41 22.0503 39.7659 23.8124 38 24.584 L 38 38 Z" stroke-linecap="round" />
</g>
</svg>