<?xml version="1.0" encoding="iso-8859-1"?>
<!-- Uploaded to: SVG Repo, www.svgrepo.com, Generator: SVG Repo Mixer Tools -->
<svg fill="#000000" height="800px" width="800px" version="1.1" id="Capa_1" xmlns="http://www.w3.org/2000/svg" xmlns:xlink="http://www.w3.org/1999/xlink" 
	 viewBox="0 0 463 463" xml:space="preserve">
<g>
	<path d="M441.048,158.968h-6.952v-21.403c0-20.073-16.33-36.403-36.403-36.403H36.403C16.331,101.161,0,117.492,0,137.564v187.871
		c0,20.073,16.331,36.403,36.403,36.403h361.29c20.073,0,36.403-16.331,36.403-36.403v-21.403h6.952
		c12.104,0,21.952-9.847,21.952-21.951V180.919C463,168.815,453.152,158.968,441.048,158.968z M419.096,325.435
		c0,11.802-9.601,21.403-21.403,21.403H36.403c-11.802,0-21.403-9.602-21.403-21.403V137.564c0-11.802,9.602-21.403,21.403-21.403
		h361.29c11.802,0,21.403,9.602,21.403,21.403v28.903v130.064V325.435z M448,282.081c0,3.833-3.119,6.951-6.952,6.951h-6.952
		V173.968h6.952c3.833,0,6.952,3.118,6.952,6.951V282.081z"/>
	<path d="M303.7,135.359c-0.968-3.147-3.876-5.294-7.168-5.294H36.403c-4.142,0-7.5,3.358-7.5,7.5v187.871
		c0,4.142,3.358,7.5,7.5,7.5h317.935c2.38,0,4.619-1.13,6.033-3.044s1.835-4.386,1.136-6.661L303.7,135.359z M43.903,317.935
		V145.064h247.089l53.191,172.871H43.903z"/>
</g>
</svg>