<?xml version="1.0" encoding="UTF-8"?>
<svg width="64px" height="64px" viewBox="0 0 64 64" version="1.1" xmlns="http://www.w3.org/2000/svg" xmlns:xlink="http://www.w3.org/1999/xlink">
    <title>measure_voltage</title>
    <g id="measure_voltage" stroke="none" stroke-width="1" fill="none" fill-rule="evenodd">
        <path d="M48.9705627,15.0294373 C58.3431458,24.4020203 58.3431458,39.5979797 48.9705627,48.9705627 C48.1895142,49.7516113 46.9231842,49.7516113 46.1421356,48.9705627 C45.361087,48.1895142 45.361087,46.9231842 46.1421356,46.1421356 C53.9526215,38.3316498 53.9526215,25.6683502 46.1421356,17.8578644 C38.3316498,10.0473785 25.6683502,10.0473785 17.8578644,17.8578644 C10.0473785,25.6683502 10.0473785,38.3316498 17.8578644,46.1421356 C18.638913,46.9231842 18.638913,48.1895142 17.8578644,48.9705627 C17.0768158,49.7516113 15.8104858,49.7516113 15.0294373,48.9705627 C5.65685425,39.5979797 5.65685425,24.4020203 15.0294373,15.0294373 C24.4020203,5.65685425 39.5979797,5.65685425 48.9705627,15.0294373 Z M46.3028185,24.8208122 C49.3142489,30.8159863 48.3176487,38.3097683 43.3137085,43.3137085 C42.9231842,43.7042328 42.2900192,43.7042328 41.8994949,43.3137085 C41.5089706,42.9231842 41.5089706,42.2900192 41.8994949,41.8994949 C46.0872332,37.7117566 47.0673511,31.5310585 44.8398484,26.4104369 L46.3028185,24.8208122 Z M39.1797231,17.6964907 L37.5895631,19.1601516 C32.4689415,16.9326489 26.2882434,17.9127668 22.1005051,22.1005051 C16.633165,27.5678451 16.633165,36.4321549 22.1005051,41.8994949 C22.4910294,42.2900192 22.4910294,42.9231842 22.1005051,43.3137085 C21.7099808,43.7042328 21.0768158,43.7042328 20.6862915,43.3137085 C14.4379028,37.0653198 14.4379028,26.9346802 20.6862915,20.6862915 C25.6902317,15.6823513 33.1840137,14.6857511 39.1797231,17.6964907 Z M43.3137085,20.6862915 C43.7089061,21.0814891 43.7221615,21.718022 43.3437587,22.1293293 L35.6886733,30.4501212 C36.2988502,31.9038002 36.0121015,33.6447527 34.8284271,34.8284271 C33.7284222,35.9284321 32.1471384,36.2538303 30.7623942,35.804622 L29.1114724,37.5992058 C28.3941281,38.3789278 27.1805162,38.4294949 26.4007942,37.7121507 L26.3431458,37.6568542 C25.5939632,36.9076717 25.5939632,35.6930067 26.3431458,34.9438241 L26.4007942,34.8885276 L28.195378,33.2376058 C27.7461697,31.8528616 28.0715679,30.2715778 29.1715729,29.1715729 C30.3552473,27.9878985 32.0961998,27.7011498 33.5498788,28.3113267 L41.8706707,20.6562413 C42.281978,20.2778385 42.9185109,20.2910939 43.3137085,20.6862915 Z" id="Shape" fill="#000000" fill-rule="nonzero"/>
        <path d="M33.6137896,44.1719446 C33.7522536,44.0141918 33.9759347,43.9583822 34.1739062,44.0321926 C34.4344995,44.1293505 34.5658187,44.4162692 34.4672158,44.6730436 L32.938,48.75 L35.4954983,48.75 C35.5863969,48.75 35.675017,48.7741829 35.7523191,48.8192313 L35.8255137,48.8711119 C36.0362547,49.0507034 36.0593411,49.3646268 35.8770787,49.5722794 L30.3862104,55.8280554 C30.2477464,55.9858082 30.0240653,56.0416178 29.8260938,55.9678074 C29.5655005,55.8706495 29.4341813,55.5837308 29.5327842,55.3269564 L31.062,51.25 L28.5045017,51.25 C28.4136031,51.25 28.324983,51.2258171 28.2476809,51.1807687 L28.1744863,51.1288881 C27.9637453,50.9492966 27.9406589,50.6353732 28.1229213,50.4277206 Z" id="Combined-Shape" fill="#000000"/>
    </g>
</svg>